%TF.GenerationSoftware,KiCad,Pcbnew,8.0.4*%
%TF.CreationDate,2024-08-04T13:12:28-04:00*%
%TF.ProjectId,WormshakerPCB,576f726d-7368-4616-9b65-725043422e6b,rev?*%
%TF.SameCoordinates,Original*%
%TF.FileFunction,Drillmap*%
%TF.FilePolarity,Positive*%
%FSLAX45Y45*%
G04 Gerber Fmt 4.5, Leading zero omitted, Abs format (unit mm)*
G04 Created by KiCad (PCBNEW 8.0.4) date 2024-08-04 13:12:28*
%MOMM*%
%LPD*%
G01*
G04 APERTURE LIST*
%ADD10C,0.050000*%
%ADD11C,0.200000*%
%ADD12C,0.100000*%
%ADD13C,0.110000*%
G04 APERTURE END LIST*
D10*
X14000000Y-8000000D02*
X16000000Y-8000000D01*
X16000000Y-10000000D01*
X14000000Y-10000000D01*
X14000000Y-8000000D01*
D11*
D12*
X14860500Y-9662500D02*
X14935500Y-9737500D01*
X14935500Y-9662500D02*
X14860500Y-9737500D01*
X14987500Y-9662500D02*
X15062500Y-9737500D01*
X15062500Y-9662500D02*
X14987500Y-9737500D01*
X15114500Y-9662500D02*
X15189500Y-9737500D01*
X15189500Y-9662500D02*
X15114500Y-9737500D01*
X14890000Y-8686620D02*
G75*
G02*
X14810000Y-8686620I-40000J0D01*
G01*
X14810000Y-8686620D02*
G75*
G02*
X14890000Y-8686620I40000J0D01*
G01*
X14890000Y-9125000D02*
G75*
G02*
X14810000Y-9125000I-40000J0D01*
G01*
X14810000Y-9125000D02*
G75*
G02*
X14890000Y-9125000I40000J0D01*
G01*
X15390000Y-9125000D02*
G75*
G02*
X15310000Y-9125000I-40000J0D01*
G01*
X15310000Y-9125000D02*
G75*
G02*
X15390000Y-9125000I40000J0D01*
G01*
X15652000Y-8686620D02*
G75*
G02*
X15572000Y-8686620I-40000J0D01*
G01*
X15572000Y-8686620D02*
G75*
G02*
X15652000Y-8686620I40000J0D01*
G01*
X14225000Y-8525000D02*
X14225000Y-8625000D01*
X14175000Y-8575000D02*
X14275000Y-8575000D01*
X14225000Y-8779000D02*
X14225000Y-8879000D01*
X14175000Y-8829000D02*
X14275000Y-8829000D01*
X14225000Y-9033000D02*
X14225000Y-9133000D01*
X14175000Y-9083000D02*
X14275000Y-9083000D01*
X15775000Y-9050000D02*
X15775000Y-9150000D01*
X15725000Y-9100000D02*
X15825000Y-9100000D01*
X15775000Y-9304000D02*
X15775000Y-9404000D01*
X15725000Y-9354000D02*
X15825000Y-9354000D01*
D13*
X14722651Y-8313891D02*
X14722651Y-8236109D01*
X14644869Y-8236109D01*
X14644869Y-8313891D01*
X14722651Y-8313891D01*
X15738651Y-8313891D02*
X15738651Y-8236109D01*
X15660869Y-8236109D01*
X15660869Y-8313891D01*
X15738651Y-8313891D01*
D11*
X14258277Y-10313984D02*
X14258277Y-10113984D01*
X14258277Y-10113984D02*
X14305896Y-10113984D01*
X14305896Y-10113984D02*
X14334467Y-10123508D01*
X14334467Y-10123508D02*
X14353515Y-10142555D01*
X14353515Y-10142555D02*
X14363039Y-10161603D01*
X14363039Y-10161603D02*
X14372562Y-10199698D01*
X14372562Y-10199698D02*
X14372562Y-10228270D01*
X14372562Y-10228270D02*
X14363039Y-10266365D01*
X14363039Y-10266365D02*
X14353515Y-10285412D01*
X14353515Y-10285412D02*
X14334467Y-10304460D01*
X14334467Y-10304460D02*
X14305896Y-10313984D01*
X14305896Y-10313984D02*
X14258277Y-10313984D01*
X14458277Y-10313984D02*
X14458277Y-10180650D01*
X14458277Y-10218746D02*
X14467801Y-10199698D01*
X14467801Y-10199698D02*
X14477324Y-10190174D01*
X14477324Y-10190174D02*
X14496372Y-10180650D01*
X14496372Y-10180650D02*
X14515420Y-10180650D01*
X14582086Y-10313984D02*
X14582086Y-10180650D01*
X14582086Y-10113984D02*
X14572562Y-10123508D01*
X14572562Y-10123508D02*
X14582086Y-10133031D01*
X14582086Y-10133031D02*
X14591610Y-10123508D01*
X14591610Y-10123508D02*
X14582086Y-10113984D01*
X14582086Y-10113984D02*
X14582086Y-10133031D01*
X14705896Y-10313984D02*
X14686848Y-10304460D01*
X14686848Y-10304460D02*
X14677324Y-10285412D01*
X14677324Y-10285412D02*
X14677324Y-10113984D01*
X14810658Y-10313984D02*
X14791610Y-10304460D01*
X14791610Y-10304460D02*
X14782086Y-10285412D01*
X14782086Y-10285412D02*
X14782086Y-10113984D01*
X15039229Y-10313984D02*
X15039229Y-10113984D01*
X15039229Y-10113984D02*
X15105896Y-10256841D01*
X15105896Y-10256841D02*
X15172562Y-10113984D01*
X15172562Y-10113984D02*
X15172562Y-10313984D01*
X15353515Y-10313984D02*
X15353515Y-10209222D01*
X15353515Y-10209222D02*
X15343991Y-10190174D01*
X15343991Y-10190174D02*
X15324943Y-10180650D01*
X15324943Y-10180650D02*
X15286848Y-10180650D01*
X15286848Y-10180650D02*
X15267801Y-10190174D01*
X15353515Y-10304460D02*
X15334467Y-10313984D01*
X15334467Y-10313984D02*
X15286848Y-10313984D01*
X15286848Y-10313984D02*
X15267801Y-10304460D01*
X15267801Y-10304460D02*
X15258277Y-10285412D01*
X15258277Y-10285412D02*
X15258277Y-10266365D01*
X15258277Y-10266365D02*
X15267801Y-10247317D01*
X15267801Y-10247317D02*
X15286848Y-10237793D01*
X15286848Y-10237793D02*
X15334467Y-10237793D01*
X15334467Y-10237793D02*
X15353515Y-10228270D01*
X15448753Y-10180650D02*
X15448753Y-10380650D01*
X15448753Y-10190174D02*
X15467801Y-10180650D01*
X15467801Y-10180650D02*
X15505896Y-10180650D01*
X15505896Y-10180650D02*
X15524943Y-10190174D01*
X15524943Y-10190174D02*
X15534467Y-10199698D01*
X15534467Y-10199698D02*
X15543991Y-10218746D01*
X15543991Y-10218746D02*
X15543991Y-10275889D01*
X15543991Y-10275889D02*
X15534467Y-10294936D01*
X15534467Y-10294936D02*
X15524943Y-10304460D01*
X15524943Y-10304460D02*
X15505896Y-10313984D01*
X15505896Y-10313984D02*
X15467801Y-10313984D01*
X15467801Y-10313984D02*
X15448753Y-10304460D01*
X15629705Y-10294936D02*
X15639229Y-10304460D01*
X15639229Y-10304460D02*
X15629705Y-10313984D01*
X15629705Y-10313984D02*
X15620182Y-10304460D01*
X15620182Y-10304460D02*
X15629705Y-10294936D01*
X15629705Y-10294936D02*
X15629705Y-10313984D01*
X15629705Y-10190174D02*
X15639229Y-10199698D01*
X15639229Y-10199698D02*
X15629705Y-10209222D01*
X15629705Y-10209222D02*
X15620182Y-10199698D01*
X15620182Y-10199698D02*
X15629705Y-10190174D01*
X15629705Y-10190174D02*
X15629705Y-10209222D01*
D12*
X13922500Y-10605000D02*
X13997500Y-10680000D01*
X13997500Y-10605000D02*
X13922500Y-10680000D01*
D11*
X14296372Y-10533984D02*
X14315420Y-10533984D01*
X14315420Y-10533984D02*
X14334467Y-10543508D01*
X14334467Y-10543508D02*
X14343991Y-10553031D01*
X14343991Y-10553031D02*
X14353515Y-10572079D01*
X14353515Y-10572079D02*
X14363039Y-10610174D01*
X14363039Y-10610174D02*
X14363039Y-10657793D01*
X14363039Y-10657793D02*
X14353515Y-10695889D01*
X14353515Y-10695889D02*
X14343991Y-10714936D01*
X14343991Y-10714936D02*
X14334467Y-10724460D01*
X14334467Y-10724460D02*
X14315420Y-10733984D01*
X14315420Y-10733984D02*
X14296372Y-10733984D01*
X14296372Y-10733984D02*
X14277324Y-10724460D01*
X14277324Y-10724460D02*
X14267801Y-10714936D01*
X14267801Y-10714936D02*
X14258277Y-10695889D01*
X14258277Y-10695889D02*
X14248753Y-10657793D01*
X14248753Y-10657793D02*
X14248753Y-10610174D01*
X14248753Y-10610174D02*
X14258277Y-10572079D01*
X14258277Y-10572079D02*
X14267801Y-10553031D01*
X14267801Y-10553031D02*
X14277324Y-10543508D01*
X14277324Y-10543508D02*
X14296372Y-10533984D01*
X14448753Y-10714936D02*
X14458277Y-10724460D01*
X14458277Y-10724460D02*
X14448753Y-10733984D01*
X14448753Y-10733984D02*
X14439229Y-10724460D01*
X14439229Y-10724460D02*
X14448753Y-10714936D01*
X14448753Y-10714936D02*
X14448753Y-10733984D01*
X14524943Y-10533984D02*
X14658277Y-10533984D01*
X14658277Y-10533984D02*
X14572562Y-10733984D01*
X14829705Y-10533984D02*
X14734467Y-10533984D01*
X14734467Y-10533984D02*
X14724943Y-10629222D01*
X14724943Y-10629222D02*
X14734467Y-10619698D01*
X14734467Y-10619698D02*
X14753515Y-10610174D01*
X14753515Y-10610174D02*
X14801134Y-10610174D01*
X14801134Y-10610174D02*
X14820182Y-10619698D01*
X14820182Y-10619698D02*
X14829705Y-10629222D01*
X14829705Y-10629222D02*
X14839229Y-10648270D01*
X14839229Y-10648270D02*
X14839229Y-10695889D01*
X14839229Y-10695889D02*
X14829705Y-10714936D01*
X14829705Y-10714936D02*
X14820182Y-10724460D01*
X14820182Y-10724460D02*
X14801134Y-10733984D01*
X14801134Y-10733984D02*
X14753515Y-10733984D01*
X14753515Y-10733984D02*
X14734467Y-10724460D01*
X14734467Y-10724460D02*
X14724943Y-10714936D01*
X14963039Y-10533984D02*
X14982086Y-10533984D01*
X14982086Y-10533984D02*
X15001134Y-10543508D01*
X15001134Y-10543508D02*
X15010658Y-10553031D01*
X15010658Y-10553031D02*
X15020182Y-10572079D01*
X15020182Y-10572079D02*
X15029705Y-10610174D01*
X15029705Y-10610174D02*
X15029705Y-10657793D01*
X15029705Y-10657793D02*
X15020182Y-10695889D01*
X15020182Y-10695889D02*
X15010658Y-10714936D01*
X15010658Y-10714936D02*
X15001134Y-10724460D01*
X15001134Y-10724460D02*
X14982086Y-10733984D01*
X14982086Y-10733984D02*
X14963039Y-10733984D01*
X14963039Y-10733984D02*
X14943991Y-10724460D01*
X14943991Y-10724460D02*
X14934467Y-10714936D01*
X14934467Y-10714936D02*
X14924943Y-10695889D01*
X14924943Y-10695889D02*
X14915420Y-10657793D01*
X14915420Y-10657793D02*
X14915420Y-10610174D01*
X14915420Y-10610174D02*
X14924943Y-10572079D01*
X14924943Y-10572079D02*
X14934467Y-10553031D01*
X14934467Y-10553031D02*
X14943991Y-10543508D01*
X14943991Y-10543508D02*
X14963039Y-10533984D01*
X15115420Y-10733984D02*
X15115420Y-10600650D01*
X15115420Y-10619698D02*
X15124943Y-10610174D01*
X15124943Y-10610174D02*
X15143991Y-10600650D01*
X15143991Y-10600650D02*
X15172563Y-10600650D01*
X15172563Y-10600650D02*
X15191610Y-10610174D01*
X15191610Y-10610174D02*
X15201134Y-10629222D01*
X15201134Y-10629222D02*
X15201134Y-10733984D01*
X15201134Y-10629222D02*
X15210658Y-10610174D01*
X15210658Y-10610174D02*
X15229705Y-10600650D01*
X15229705Y-10600650D02*
X15258277Y-10600650D01*
X15258277Y-10600650D02*
X15277324Y-10610174D01*
X15277324Y-10610174D02*
X15286848Y-10629222D01*
X15286848Y-10629222D02*
X15286848Y-10733984D01*
X15382086Y-10733984D02*
X15382086Y-10600650D01*
X15382086Y-10619698D02*
X15391610Y-10610174D01*
X15391610Y-10610174D02*
X15410658Y-10600650D01*
X15410658Y-10600650D02*
X15439229Y-10600650D01*
X15439229Y-10600650D02*
X15458277Y-10610174D01*
X15458277Y-10610174D02*
X15467801Y-10629222D01*
X15467801Y-10629222D02*
X15467801Y-10733984D01*
X15467801Y-10629222D02*
X15477324Y-10610174D01*
X15477324Y-10610174D02*
X15496372Y-10600650D01*
X15496372Y-10600650D02*
X15524943Y-10600650D01*
X15524943Y-10600650D02*
X15543991Y-10610174D01*
X15543991Y-10610174D02*
X15553515Y-10629222D01*
X15553515Y-10629222D02*
X15553515Y-10733984D01*
X15943991Y-10524460D02*
X15772563Y-10781603D01*
X16201134Y-10533984D02*
X16220182Y-10533984D01*
X16220182Y-10533984D02*
X16239229Y-10543508D01*
X16239229Y-10543508D02*
X16248753Y-10553031D01*
X16248753Y-10553031D02*
X16258277Y-10572079D01*
X16258277Y-10572079D02*
X16267801Y-10610174D01*
X16267801Y-10610174D02*
X16267801Y-10657793D01*
X16267801Y-10657793D02*
X16258277Y-10695889D01*
X16258277Y-10695889D02*
X16248753Y-10714936D01*
X16248753Y-10714936D02*
X16239229Y-10724460D01*
X16239229Y-10724460D02*
X16220182Y-10733984D01*
X16220182Y-10733984D02*
X16201134Y-10733984D01*
X16201134Y-10733984D02*
X16182086Y-10724460D01*
X16182086Y-10724460D02*
X16172563Y-10714936D01*
X16172563Y-10714936D02*
X16163039Y-10695889D01*
X16163039Y-10695889D02*
X16153515Y-10657793D01*
X16153515Y-10657793D02*
X16153515Y-10610174D01*
X16153515Y-10610174D02*
X16163039Y-10572079D01*
X16163039Y-10572079D02*
X16172563Y-10553031D01*
X16172563Y-10553031D02*
X16182086Y-10543508D01*
X16182086Y-10543508D02*
X16201134Y-10533984D01*
X16353515Y-10714936D02*
X16363039Y-10724460D01*
X16363039Y-10724460D02*
X16353515Y-10733984D01*
X16353515Y-10733984D02*
X16343991Y-10724460D01*
X16343991Y-10724460D02*
X16353515Y-10714936D01*
X16353515Y-10714936D02*
X16353515Y-10733984D01*
X16486848Y-10533984D02*
X16505896Y-10533984D01*
X16505896Y-10533984D02*
X16524944Y-10543508D01*
X16524944Y-10543508D02*
X16534467Y-10553031D01*
X16534467Y-10553031D02*
X16543991Y-10572079D01*
X16543991Y-10572079D02*
X16553515Y-10610174D01*
X16553515Y-10610174D02*
X16553515Y-10657793D01*
X16553515Y-10657793D02*
X16543991Y-10695889D01*
X16543991Y-10695889D02*
X16534467Y-10714936D01*
X16534467Y-10714936D02*
X16524944Y-10724460D01*
X16524944Y-10724460D02*
X16505896Y-10733984D01*
X16505896Y-10733984D02*
X16486848Y-10733984D01*
X16486848Y-10733984D02*
X16467801Y-10724460D01*
X16467801Y-10724460D02*
X16458277Y-10714936D01*
X16458277Y-10714936D02*
X16448753Y-10695889D01*
X16448753Y-10695889D02*
X16439229Y-10657793D01*
X16439229Y-10657793D02*
X16439229Y-10610174D01*
X16439229Y-10610174D02*
X16448753Y-10572079D01*
X16448753Y-10572079D02*
X16458277Y-10553031D01*
X16458277Y-10553031D02*
X16467801Y-10543508D01*
X16467801Y-10543508D02*
X16486848Y-10533984D01*
X16629706Y-10553031D02*
X16639229Y-10543508D01*
X16639229Y-10543508D02*
X16658277Y-10533984D01*
X16658277Y-10533984D02*
X16705896Y-10533984D01*
X16705896Y-10533984D02*
X16724944Y-10543508D01*
X16724944Y-10543508D02*
X16734467Y-10553031D01*
X16734467Y-10553031D02*
X16743991Y-10572079D01*
X16743991Y-10572079D02*
X16743991Y-10591127D01*
X16743991Y-10591127D02*
X16734467Y-10619698D01*
X16734467Y-10619698D02*
X16620182Y-10733984D01*
X16620182Y-10733984D02*
X16743991Y-10733984D01*
X16839229Y-10733984D02*
X16877325Y-10733984D01*
X16877325Y-10733984D02*
X16896372Y-10724460D01*
X16896372Y-10724460D02*
X16905896Y-10714936D01*
X16905896Y-10714936D02*
X16924944Y-10686365D01*
X16924944Y-10686365D02*
X16934468Y-10648270D01*
X16934468Y-10648270D02*
X16934468Y-10572079D01*
X16934468Y-10572079D02*
X16924944Y-10553031D01*
X16924944Y-10553031D02*
X16915420Y-10543508D01*
X16915420Y-10543508D02*
X16896372Y-10533984D01*
X16896372Y-10533984D02*
X16858277Y-10533984D01*
X16858277Y-10533984D02*
X16839229Y-10543508D01*
X16839229Y-10543508D02*
X16829706Y-10553031D01*
X16829706Y-10553031D02*
X16820182Y-10572079D01*
X16820182Y-10572079D02*
X16820182Y-10619698D01*
X16820182Y-10619698D02*
X16829706Y-10638746D01*
X16829706Y-10638746D02*
X16839229Y-10648270D01*
X16839229Y-10648270D02*
X16858277Y-10657793D01*
X16858277Y-10657793D02*
X16896372Y-10657793D01*
X16896372Y-10657793D02*
X16915420Y-10648270D01*
X16915420Y-10648270D02*
X16924944Y-10638746D01*
X16924944Y-10638746D02*
X16934468Y-10619698D01*
X17115420Y-10533984D02*
X17020182Y-10533984D01*
X17020182Y-10533984D02*
X17010658Y-10629222D01*
X17010658Y-10629222D02*
X17020182Y-10619698D01*
X17020182Y-10619698D02*
X17039229Y-10610174D01*
X17039229Y-10610174D02*
X17086849Y-10610174D01*
X17086849Y-10610174D02*
X17105896Y-10619698D01*
X17105896Y-10619698D02*
X17115420Y-10629222D01*
X17115420Y-10629222D02*
X17124944Y-10648270D01*
X17124944Y-10648270D02*
X17124944Y-10695889D01*
X17124944Y-10695889D02*
X17115420Y-10714936D01*
X17115420Y-10714936D02*
X17105896Y-10724460D01*
X17105896Y-10724460D02*
X17086849Y-10733984D01*
X17086849Y-10733984D02*
X17039229Y-10733984D01*
X17039229Y-10733984D02*
X17020182Y-10724460D01*
X17020182Y-10724460D02*
X17010658Y-10714936D01*
X17201134Y-10533984D02*
X17201134Y-10572079D01*
X17277325Y-10533984D02*
X17277325Y-10572079D01*
X17572563Y-10810174D02*
X17563039Y-10800650D01*
X17563039Y-10800650D02*
X17543991Y-10772079D01*
X17543991Y-10772079D02*
X17534468Y-10753031D01*
X17534468Y-10753031D02*
X17524944Y-10724460D01*
X17524944Y-10724460D02*
X17515420Y-10676841D01*
X17515420Y-10676841D02*
X17515420Y-10638746D01*
X17515420Y-10638746D02*
X17524944Y-10591127D01*
X17524944Y-10591127D02*
X17534468Y-10562555D01*
X17534468Y-10562555D02*
X17543991Y-10543508D01*
X17543991Y-10543508D02*
X17563039Y-10514936D01*
X17563039Y-10514936D02*
X17572563Y-10505412D01*
X17629706Y-10533984D02*
X17753515Y-10533984D01*
X17753515Y-10533984D02*
X17686849Y-10610174D01*
X17686849Y-10610174D02*
X17715420Y-10610174D01*
X17715420Y-10610174D02*
X17734468Y-10619698D01*
X17734468Y-10619698D02*
X17743991Y-10629222D01*
X17743991Y-10629222D02*
X17753515Y-10648270D01*
X17753515Y-10648270D02*
X17753515Y-10695889D01*
X17753515Y-10695889D02*
X17743991Y-10714936D01*
X17743991Y-10714936D02*
X17734468Y-10724460D01*
X17734468Y-10724460D02*
X17715420Y-10733984D01*
X17715420Y-10733984D02*
X17658277Y-10733984D01*
X17658277Y-10733984D02*
X17639230Y-10724460D01*
X17639230Y-10724460D02*
X17629706Y-10714936D01*
X17991611Y-10733984D02*
X17991611Y-10533984D01*
X18077325Y-10733984D02*
X18077325Y-10629222D01*
X18077325Y-10629222D02*
X18067801Y-10610174D01*
X18067801Y-10610174D02*
X18048753Y-10600650D01*
X18048753Y-10600650D02*
X18020182Y-10600650D01*
X18020182Y-10600650D02*
X18001134Y-10610174D01*
X18001134Y-10610174D02*
X17991611Y-10619698D01*
X18201134Y-10733984D02*
X18182087Y-10724460D01*
X18182087Y-10724460D02*
X18172563Y-10714936D01*
X18172563Y-10714936D02*
X18163039Y-10695889D01*
X18163039Y-10695889D02*
X18163039Y-10638746D01*
X18163039Y-10638746D02*
X18172563Y-10619698D01*
X18172563Y-10619698D02*
X18182087Y-10610174D01*
X18182087Y-10610174D02*
X18201134Y-10600650D01*
X18201134Y-10600650D02*
X18229706Y-10600650D01*
X18229706Y-10600650D02*
X18248753Y-10610174D01*
X18248753Y-10610174D02*
X18258277Y-10619698D01*
X18258277Y-10619698D02*
X18267801Y-10638746D01*
X18267801Y-10638746D02*
X18267801Y-10695889D01*
X18267801Y-10695889D02*
X18258277Y-10714936D01*
X18258277Y-10714936D02*
X18248753Y-10724460D01*
X18248753Y-10724460D02*
X18229706Y-10733984D01*
X18229706Y-10733984D02*
X18201134Y-10733984D01*
X18382087Y-10733984D02*
X18363039Y-10724460D01*
X18363039Y-10724460D02*
X18353515Y-10705412D01*
X18353515Y-10705412D02*
X18353515Y-10533984D01*
X18534468Y-10724460D02*
X18515420Y-10733984D01*
X18515420Y-10733984D02*
X18477325Y-10733984D01*
X18477325Y-10733984D02*
X18458277Y-10724460D01*
X18458277Y-10724460D02*
X18448753Y-10705412D01*
X18448753Y-10705412D02*
X18448753Y-10629222D01*
X18448753Y-10629222D02*
X18458277Y-10610174D01*
X18458277Y-10610174D02*
X18477325Y-10600650D01*
X18477325Y-10600650D02*
X18515420Y-10600650D01*
X18515420Y-10600650D02*
X18534468Y-10610174D01*
X18534468Y-10610174D02*
X18543992Y-10629222D01*
X18543992Y-10629222D02*
X18543992Y-10648270D01*
X18543992Y-10648270D02*
X18448753Y-10667317D01*
X18620182Y-10724460D02*
X18639230Y-10733984D01*
X18639230Y-10733984D02*
X18677325Y-10733984D01*
X18677325Y-10733984D02*
X18696373Y-10724460D01*
X18696373Y-10724460D02*
X18705896Y-10705412D01*
X18705896Y-10705412D02*
X18705896Y-10695889D01*
X18705896Y-10695889D02*
X18696373Y-10676841D01*
X18696373Y-10676841D02*
X18677325Y-10667317D01*
X18677325Y-10667317D02*
X18648753Y-10667317D01*
X18648753Y-10667317D02*
X18629706Y-10657793D01*
X18629706Y-10657793D02*
X18620182Y-10638746D01*
X18620182Y-10638746D02*
X18620182Y-10629222D01*
X18620182Y-10629222D02*
X18629706Y-10610174D01*
X18629706Y-10610174D02*
X18648753Y-10600650D01*
X18648753Y-10600650D02*
X18677325Y-10600650D01*
X18677325Y-10600650D02*
X18696373Y-10610174D01*
X18772563Y-10810174D02*
X18782087Y-10800650D01*
X18782087Y-10800650D02*
X18801134Y-10772079D01*
X18801134Y-10772079D02*
X18810658Y-10753031D01*
X18810658Y-10753031D02*
X18820182Y-10724460D01*
X18820182Y-10724460D02*
X18829706Y-10676841D01*
X18829706Y-10676841D02*
X18829706Y-10638746D01*
X18829706Y-10638746D02*
X18820182Y-10591127D01*
X18820182Y-10591127D02*
X18810658Y-10562555D01*
X18810658Y-10562555D02*
X18801134Y-10543508D01*
X18801134Y-10543508D02*
X18782087Y-10514936D01*
X18782087Y-10514936D02*
X18772563Y-10505412D01*
D12*
X13997500Y-10906500D02*
G75*
G02*
X13917500Y-10906500I-40000J0D01*
G01*
X13917500Y-10906500D02*
G75*
G02*
X13997500Y-10906500I40000J0D01*
G01*
D11*
X14296372Y-10797984D02*
X14315420Y-10797984D01*
X14315420Y-10797984D02*
X14334467Y-10807508D01*
X14334467Y-10807508D02*
X14343991Y-10817031D01*
X14343991Y-10817031D02*
X14353515Y-10836079D01*
X14353515Y-10836079D02*
X14363039Y-10874174D01*
X14363039Y-10874174D02*
X14363039Y-10921793D01*
X14363039Y-10921793D02*
X14353515Y-10959889D01*
X14353515Y-10959889D02*
X14343991Y-10978936D01*
X14343991Y-10978936D02*
X14334467Y-10988460D01*
X14334467Y-10988460D02*
X14315420Y-10997984D01*
X14315420Y-10997984D02*
X14296372Y-10997984D01*
X14296372Y-10997984D02*
X14277324Y-10988460D01*
X14277324Y-10988460D02*
X14267801Y-10978936D01*
X14267801Y-10978936D02*
X14258277Y-10959889D01*
X14258277Y-10959889D02*
X14248753Y-10921793D01*
X14248753Y-10921793D02*
X14248753Y-10874174D01*
X14248753Y-10874174D02*
X14258277Y-10836079D01*
X14258277Y-10836079D02*
X14267801Y-10817031D01*
X14267801Y-10817031D02*
X14277324Y-10807508D01*
X14277324Y-10807508D02*
X14296372Y-10797984D01*
X14448753Y-10978936D02*
X14458277Y-10988460D01*
X14458277Y-10988460D02*
X14448753Y-10997984D01*
X14448753Y-10997984D02*
X14439229Y-10988460D01*
X14439229Y-10988460D02*
X14448753Y-10978936D01*
X14448753Y-10978936D02*
X14448753Y-10997984D01*
X14572562Y-10883698D02*
X14553515Y-10874174D01*
X14553515Y-10874174D02*
X14543991Y-10864650D01*
X14543991Y-10864650D02*
X14534467Y-10845603D01*
X14534467Y-10845603D02*
X14534467Y-10836079D01*
X14534467Y-10836079D02*
X14543991Y-10817031D01*
X14543991Y-10817031D02*
X14553515Y-10807508D01*
X14553515Y-10807508D02*
X14572562Y-10797984D01*
X14572562Y-10797984D02*
X14610658Y-10797984D01*
X14610658Y-10797984D02*
X14629705Y-10807508D01*
X14629705Y-10807508D02*
X14639229Y-10817031D01*
X14639229Y-10817031D02*
X14648753Y-10836079D01*
X14648753Y-10836079D02*
X14648753Y-10845603D01*
X14648753Y-10845603D02*
X14639229Y-10864650D01*
X14639229Y-10864650D02*
X14629705Y-10874174D01*
X14629705Y-10874174D02*
X14610658Y-10883698D01*
X14610658Y-10883698D02*
X14572562Y-10883698D01*
X14572562Y-10883698D02*
X14553515Y-10893222D01*
X14553515Y-10893222D02*
X14543991Y-10902746D01*
X14543991Y-10902746D02*
X14534467Y-10921793D01*
X14534467Y-10921793D02*
X14534467Y-10959889D01*
X14534467Y-10959889D02*
X14543991Y-10978936D01*
X14543991Y-10978936D02*
X14553515Y-10988460D01*
X14553515Y-10988460D02*
X14572562Y-10997984D01*
X14572562Y-10997984D02*
X14610658Y-10997984D01*
X14610658Y-10997984D02*
X14629705Y-10988460D01*
X14629705Y-10988460D02*
X14639229Y-10978936D01*
X14639229Y-10978936D02*
X14648753Y-10959889D01*
X14648753Y-10959889D02*
X14648753Y-10921793D01*
X14648753Y-10921793D02*
X14639229Y-10902746D01*
X14639229Y-10902746D02*
X14629705Y-10893222D01*
X14629705Y-10893222D02*
X14610658Y-10883698D01*
X14772562Y-10797984D02*
X14791610Y-10797984D01*
X14791610Y-10797984D02*
X14810658Y-10807508D01*
X14810658Y-10807508D02*
X14820182Y-10817031D01*
X14820182Y-10817031D02*
X14829705Y-10836079D01*
X14829705Y-10836079D02*
X14839229Y-10874174D01*
X14839229Y-10874174D02*
X14839229Y-10921793D01*
X14839229Y-10921793D02*
X14829705Y-10959889D01*
X14829705Y-10959889D02*
X14820182Y-10978936D01*
X14820182Y-10978936D02*
X14810658Y-10988460D01*
X14810658Y-10988460D02*
X14791610Y-10997984D01*
X14791610Y-10997984D02*
X14772562Y-10997984D01*
X14772562Y-10997984D02*
X14753515Y-10988460D01*
X14753515Y-10988460D02*
X14743991Y-10978936D01*
X14743991Y-10978936D02*
X14734467Y-10959889D01*
X14734467Y-10959889D02*
X14724943Y-10921793D01*
X14724943Y-10921793D02*
X14724943Y-10874174D01*
X14724943Y-10874174D02*
X14734467Y-10836079D01*
X14734467Y-10836079D02*
X14743991Y-10817031D01*
X14743991Y-10817031D02*
X14753515Y-10807508D01*
X14753515Y-10807508D02*
X14772562Y-10797984D01*
X14963039Y-10797984D02*
X14982086Y-10797984D01*
X14982086Y-10797984D02*
X15001134Y-10807508D01*
X15001134Y-10807508D02*
X15010658Y-10817031D01*
X15010658Y-10817031D02*
X15020182Y-10836079D01*
X15020182Y-10836079D02*
X15029705Y-10874174D01*
X15029705Y-10874174D02*
X15029705Y-10921793D01*
X15029705Y-10921793D02*
X15020182Y-10959889D01*
X15020182Y-10959889D02*
X15010658Y-10978936D01*
X15010658Y-10978936D02*
X15001134Y-10988460D01*
X15001134Y-10988460D02*
X14982086Y-10997984D01*
X14982086Y-10997984D02*
X14963039Y-10997984D01*
X14963039Y-10997984D02*
X14943991Y-10988460D01*
X14943991Y-10988460D02*
X14934467Y-10978936D01*
X14934467Y-10978936D02*
X14924943Y-10959889D01*
X14924943Y-10959889D02*
X14915420Y-10921793D01*
X14915420Y-10921793D02*
X14915420Y-10874174D01*
X14915420Y-10874174D02*
X14924943Y-10836079D01*
X14924943Y-10836079D02*
X14934467Y-10817031D01*
X14934467Y-10817031D02*
X14943991Y-10807508D01*
X14943991Y-10807508D02*
X14963039Y-10797984D01*
X15115420Y-10997984D02*
X15115420Y-10864650D01*
X15115420Y-10883698D02*
X15124943Y-10874174D01*
X15124943Y-10874174D02*
X15143991Y-10864650D01*
X15143991Y-10864650D02*
X15172563Y-10864650D01*
X15172563Y-10864650D02*
X15191610Y-10874174D01*
X15191610Y-10874174D02*
X15201134Y-10893222D01*
X15201134Y-10893222D02*
X15201134Y-10997984D01*
X15201134Y-10893222D02*
X15210658Y-10874174D01*
X15210658Y-10874174D02*
X15229705Y-10864650D01*
X15229705Y-10864650D02*
X15258277Y-10864650D01*
X15258277Y-10864650D02*
X15277324Y-10874174D01*
X15277324Y-10874174D02*
X15286848Y-10893222D01*
X15286848Y-10893222D02*
X15286848Y-10997984D01*
X15382086Y-10997984D02*
X15382086Y-10864650D01*
X15382086Y-10883698D02*
X15391610Y-10874174D01*
X15391610Y-10874174D02*
X15410658Y-10864650D01*
X15410658Y-10864650D02*
X15439229Y-10864650D01*
X15439229Y-10864650D02*
X15458277Y-10874174D01*
X15458277Y-10874174D02*
X15467801Y-10893222D01*
X15467801Y-10893222D02*
X15467801Y-10997984D01*
X15467801Y-10893222D02*
X15477324Y-10874174D01*
X15477324Y-10874174D02*
X15496372Y-10864650D01*
X15496372Y-10864650D02*
X15524943Y-10864650D01*
X15524943Y-10864650D02*
X15543991Y-10874174D01*
X15543991Y-10874174D02*
X15553515Y-10893222D01*
X15553515Y-10893222D02*
X15553515Y-10997984D01*
X15943991Y-10788460D02*
X15772563Y-11045603D01*
X16201134Y-10797984D02*
X16220182Y-10797984D01*
X16220182Y-10797984D02*
X16239229Y-10807508D01*
X16239229Y-10807508D02*
X16248753Y-10817031D01*
X16248753Y-10817031D02*
X16258277Y-10836079D01*
X16258277Y-10836079D02*
X16267801Y-10874174D01*
X16267801Y-10874174D02*
X16267801Y-10921793D01*
X16267801Y-10921793D02*
X16258277Y-10959889D01*
X16258277Y-10959889D02*
X16248753Y-10978936D01*
X16248753Y-10978936D02*
X16239229Y-10988460D01*
X16239229Y-10988460D02*
X16220182Y-10997984D01*
X16220182Y-10997984D02*
X16201134Y-10997984D01*
X16201134Y-10997984D02*
X16182086Y-10988460D01*
X16182086Y-10988460D02*
X16172563Y-10978936D01*
X16172563Y-10978936D02*
X16163039Y-10959889D01*
X16163039Y-10959889D02*
X16153515Y-10921793D01*
X16153515Y-10921793D02*
X16153515Y-10874174D01*
X16153515Y-10874174D02*
X16163039Y-10836079D01*
X16163039Y-10836079D02*
X16172563Y-10817031D01*
X16172563Y-10817031D02*
X16182086Y-10807508D01*
X16182086Y-10807508D02*
X16201134Y-10797984D01*
X16353515Y-10978936D02*
X16363039Y-10988460D01*
X16363039Y-10988460D02*
X16353515Y-10997984D01*
X16353515Y-10997984D02*
X16343991Y-10988460D01*
X16343991Y-10988460D02*
X16353515Y-10978936D01*
X16353515Y-10978936D02*
X16353515Y-10997984D01*
X16486848Y-10797984D02*
X16505896Y-10797984D01*
X16505896Y-10797984D02*
X16524944Y-10807508D01*
X16524944Y-10807508D02*
X16534467Y-10817031D01*
X16534467Y-10817031D02*
X16543991Y-10836079D01*
X16543991Y-10836079D02*
X16553515Y-10874174D01*
X16553515Y-10874174D02*
X16553515Y-10921793D01*
X16553515Y-10921793D02*
X16543991Y-10959889D01*
X16543991Y-10959889D02*
X16534467Y-10978936D01*
X16534467Y-10978936D02*
X16524944Y-10988460D01*
X16524944Y-10988460D02*
X16505896Y-10997984D01*
X16505896Y-10997984D02*
X16486848Y-10997984D01*
X16486848Y-10997984D02*
X16467801Y-10988460D01*
X16467801Y-10988460D02*
X16458277Y-10978936D01*
X16458277Y-10978936D02*
X16448753Y-10959889D01*
X16448753Y-10959889D02*
X16439229Y-10921793D01*
X16439229Y-10921793D02*
X16439229Y-10874174D01*
X16439229Y-10874174D02*
X16448753Y-10836079D01*
X16448753Y-10836079D02*
X16458277Y-10817031D01*
X16458277Y-10817031D02*
X16467801Y-10807508D01*
X16467801Y-10807508D02*
X16486848Y-10797984D01*
X16620182Y-10797984D02*
X16743991Y-10797984D01*
X16743991Y-10797984D02*
X16677325Y-10874174D01*
X16677325Y-10874174D02*
X16705896Y-10874174D01*
X16705896Y-10874174D02*
X16724944Y-10883698D01*
X16724944Y-10883698D02*
X16734467Y-10893222D01*
X16734467Y-10893222D02*
X16743991Y-10912270D01*
X16743991Y-10912270D02*
X16743991Y-10959889D01*
X16743991Y-10959889D02*
X16734467Y-10978936D01*
X16734467Y-10978936D02*
X16724944Y-10988460D01*
X16724944Y-10988460D02*
X16705896Y-10997984D01*
X16705896Y-10997984D02*
X16648753Y-10997984D01*
X16648753Y-10997984D02*
X16629706Y-10988460D01*
X16629706Y-10988460D02*
X16620182Y-10978936D01*
X16934468Y-10997984D02*
X16820182Y-10997984D01*
X16877325Y-10997984D02*
X16877325Y-10797984D01*
X16877325Y-10797984D02*
X16858277Y-10826555D01*
X16858277Y-10826555D02*
X16839229Y-10845603D01*
X16839229Y-10845603D02*
X16820182Y-10855127D01*
X17115420Y-10797984D02*
X17020182Y-10797984D01*
X17020182Y-10797984D02*
X17010658Y-10893222D01*
X17010658Y-10893222D02*
X17020182Y-10883698D01*
X17020182Y-10883698D02*
X17039229Y-10874174D01*
X17039229Y-10874174D02*
X17086849Y-10874174D01*
X17086849Y-10874174D02*
X17105896Y-10883698D01*
X17105896Y-10883698D02*
X17115420Y-10893222D01*
X17115420Y-10893222D02*
X17124944Y-10912270D01*
X17124944Y-10912270D02*
X17124944Y-10959889D01*
X17124944Y-10959889D02*
X17115420Y-10978936D01*
X17115420Y-10978936D02*
X17105896Y-10988460D01*
X17105896Y-10988460D02*
X17086849Y-10997984D01*
X17086849Y-10997984D02*
X17039229Y-10997984D01*
X17039229Y-10997984D02*
X17020182Y-10988460D01*
X17020182Y-10988460D02*
X17010658Y-10978936D01*
X17201134Y-10797984D02*
X17201134Y-10836079D01*
X17277325Y-10797984D02*
X17277325Y-10836079D01*
X17572563Y-11074174D02*
X17563039Y-11064650D01*
X17563039Y-11064650D02*
X17543991Y-11036079D01*
X17543991Y-11036079D02*
X17534468Y-11017031D01*
X17534468Y-11017031D02*
X17524944Y-10988460D01*
X17524944Y-10988460D02*
X17515420Y-10940841D01*
X17515420Y-10940841D02*
X17515420Y-10902746D01*
X17515420Y-10902746D02*
X17524944Y-10855127D01*
X17524944Y-10855127D02*
X17534468Y-10826555D01*
X17534468Y-10826555D02*
X17543991Y-10807508D01*
X17543991Y-10807508D02*
X17563039Y-10778936D01*
X17563039Y-10778936D02*
X17572563Y-10769412D01*
X17734468Y-10864650D02*
X17734468Y-10997984D01*
X17686849Y-10788460D02*
X17639230Y-10931317D01*
X17639230Y-10931317D02*
X17763039Y-10931317D01*
X17991611Y-10997984D02*
X17991611Y-10797984D01*
X18077325Y-10997984D02*
X18077325Y-10893222D01*
X18077325Y-10893222D02*
X18067801Y-10874174D01*
X18067801Y-10874174D02*
X18048753Y-10864650D01*
X18048753Y-10864650D02*
X18020182Y-10864650D01*
X18020182Y-10864650D02*
X18001134Y-10874174D01*
X18001134Y-10874174D02*
X17991611Y-10883698D01*
X18201134Y-10997984D02*
X18182087Y-10988460D01*
X18182087Y-10988460D02*
X18172563Y-10978936D01*
X18172563Y-10978936D02*
X18163039Y-10959889D01*
X18163039Y-10959889D02*
X18163039Y-10902746D01*
X18163039Y-10902746D02*
X18172563Y-10883698D01*
X18172563Y-10883698D02*
X18182087Y-10874174D01*
X18182087Y-10874174D02*
X18201134Y-10864650D01*
X18201134Y-10864650D02*
X18229706Y-10864650D01*
X18229706Y-10864650D02*
X18248753Y-10874174D01*
X18248753Y-10874174D02*
X18258277Y-10883698D01*
X18258277Y-10883698D02*
X18267801Y-10902746D01*
X18267801Y-10902746D02*
X18267801Y-10959889D01*
X18267801Y-10959889D02*
X18258277Y-10978936D01*
X18258277Y-10978936D02*
X18248753Y-10988460D01*
X18248753Y-10988460D02*
X18229706Y-10997984D01*
X18229706Y-10997984D02*
X18201134Y-10997984D01*
X18382087Y-10997984D02*
X18363039Y-10988460D01*
X18363039Y-10988460D02*
X18353515Y-10969412D01*
X18353515Y-10969412D02*
X18353515Y-10797984D01*
X18534468Y-10988460D02*
X18515420Y-10997984D01*
X18515420Y-10997984D02*
X18477325Y-10997984D01*
X18477325Y-10997984D02*
X18458277Y-10988460D01*
X18458277Y-10988460D02*
X18448753Y-10969412D01*
X18448753Y-10969412D02*
X18448753Y-10893222D01*
X18448753Y-10893222D02*
X18458277Y-10874174D01*
X18458277Y-10874174D02*
X18477325Y-10864650D01*
X18477325Y-10864650D02*
X18515420Y-10864650D01*
X18515420Y-10864650D02*
X18534468Y-10874174D01*
X18534468Y-10874174D02*
X18543992Y-10893222D01*
X18543992Y-10893222D02*
X18543992Y-10912270D01*
X18543992Y-10912270D02*
X18448753Y-10931317D01*
X18620182Y-10988460D02*
X18639230Y-10997984D01*
X18639230Y-10997984D02*
X18677325Y-10997984D01*
X18677325Y-10997984D02*
X18696373Y-10988460D01*
X18696373Y-10988460D02*
X18705896Y-10969412D01*
X18705896Y-10969412D02*
X18705896Y-10959889D01*
X18705896Y-10959889D02*
X18696373Y-10940841D01*
X18696373Y-10940841D02*
X18677325Y-10931317D01*
X18677325Y-10931317D02*
X18648753Y-10931317D01*
X18648753Y-10931317D02*
X18629706Y-10921793D01*
X18629706Y-10921793D02*
X18620182Y-10902746D01*
X18620182Y-10902746D02*
X18620182Y-10893222D01*
X18620182Y-10893222D02*
X18629706Y-10874174D01*
X18629706Y-10874174D02*
X18648753Y-10864650D01*
X18648753Y-10864650D02*
X18677325Y-10864650D01*
X18677325Y-10864650D02*
X18696373Y-10874174D01*
X18772563Y-11074174D02*
X18782087Y-11064650D01*
X18782087Y-11064650D02*
X18801134Y-11036079D01*
X18801134Y-11036079D02*
X18810658Y-11017031D01*
X18810658Y-11017031D02*
X18820182Y-10988460D01*
X18820182Y-10988460D02*
X18829706Y-10940841D01*
X18829706Y-10940841D02*
X18829706Y-10902746D01*
X18829706Y-10902746D02*
X18820182Y-10855127D01*
X18820182Y-10855127D02*
X18810658Y-10826555D01*
X18810658Y-10826555D02*
X18801134Y-10807508D01*
X18801134Y-10807508D02*
X18782087Y-10778936D01*
X18782087Y-10778936D02*
X18772563Y-10769412D01*
D12*
X13947500Y-11120500D02*
X13947500Y-11220500D01*
X13897500Y-11170500D02*
X13997500Y-11170500D01*
D11*
X14363039Y-11261984D02*
X14248753Y-11261984D01*
X14305896Y-11261984D02*
X14305896Y-11061984D01*
X14305896Y-11061984D02*
X14286848Y-11090555D01*
X14286848Y-11090555D02*
X14267801Y-11109603D01*
X14267801Y-11109603D02*
X14248753Y-11119127D01*
X14448753Y-11242936D02*
X14458277Y-11252460D01*
X14458277Y-11252460D02*
X14448753Y-11261984D01*
X14448753Y-11261984D02*
X14439229Y-11252460D01*
X14439229Y-11252460D02*
X14448753Y-11242936D01*
X14448753Y-11242936D02*
X14448753Y-11261984D01*
X14582086Y-11061984D02*
X14601134Y-11061984D01*
X14601134Y-11061984D02*
X14620182Y-11071508D01*
X14620182Y-11071508D02*
X14629705Y-11081031D01*
X14629705Y-11081031D02*
X14639229Y-11100079D01*
X14639229Y-11100079D02*
X14648753Y-11138174D01*
X14648753Y-11138174D02*
X14648753Y-11185793D01*
X14648753Y-11185793D02*
X14639229Y-11223888D01*
X14639229Y-11223888D02*
X14629705Y-11242936D01*
X14629705Y-11242936D02*
X14620182Y-11252460D01*
X14620182Y-11252460D02*
X14601134Y-11261984D01*
X14601134Y-11261984D02*
X14582086Y-11261984D01*
X14582086Y-11261984D02*
X14563039Y-11252460D01*
X14563039Y-11252460D02*
X14553515Y-11242936D01*
X14553515Y-11242936D02*
X14543991Y-11223888D01*
X14543991Y-11223888D02*
X14534467Y-11185793D01*
X14534467Y-11185793D02*
X14534467Y-11138174D01*
X14534467Y-11138174D02*
X14543991Y-11100079D01*
X14543991Y-11100079D02*
X14553515Y-11081031D01*
X14553515Y-11081031D02*
X14563039Y-11071508D01*
X14563039Y-11071508D02*
X14582086Y-11061984D01*
X14772562Y-11061984D02*
X14791610Y-11061984D01*
X14791610Y-11061984D02*
X14810658Y-11071508D01*
X14810658Y-11071508D02*
X14820182Y-11081031D01*
X14820182Y-11081031D02*
X14829705Y-11100079D01*
X14829705Y-11100079D02*
X14839229Y-11138174D01*
X14839229Y-11138174D02*
X14839229Y-11185793D01*
X14839229Y-11185793D02*
X14829705Y-11223888D01*
X14829705Y-11223888D02*
X14820182Y-11242936D01*
X14820182Y-11242936D02*
X14810658Y-11252460D01*
X14810658Y-11252460D02*
X14791610Y-11261984D01*
X14791610Y-11261984D02*
X14772562Y-11261984D01*
X14772562Y-11261984D02*
X14753515Y-11252460D01*
X14753515Y-11252460D02*
X14743991Y-11242936D01*
X14743991Y-11242936D02*
X14734467Y-11223888D01*
X14734467Y-11223888D02*
X14724943Y-11185793D01*
X14724943Y-11185793D02*
X14724943Y-11138174D01*
X14724943Y-11138174D02*
X14734467Y-11100079D01*
X14734467Y-11100079D02*
X14743991Y-11081031D01*
X14743991Y-11081031D02*
X14753515Y-11071508D01*
X14753515Y-11071508D02*
X14772562Y-11061984D01*
X14963039Y-11061984D02*
X14982086Y-11061984D01*
X14982086Y-11061984D02*
X15001134Y-11071508D01*
X15001134Y-11071508D02*
X15010658Y-11081031D01*
X15010658Y-11081031D02*
X15020182Y-11100079D01*
X15020182Y-11100079D02*
X15029705Y-11138174D01*
X15029705Y-11138174D02*
X15029705Y-11185793D01*
X15029705Y-11185793D02*
X15020182Y-11223888D01*
X15020182Y-11223888D02*
X15010658Y-11242936D01*
X15010658Y-11242936D02*
X15001134Y-11252460D01*
X15001134Y-11252460D02*
X14982086Y-11261984D01*
X14982086Y-11261984D02*
X14963039Y-11261984D01*
X14963039Y-11261984D02*
X14943991Y-11252460D01*
X14943991Y-11252460D02*
X14934467Y-11242936D01*
X14934467Y-11242936D02*
X14924943Y-11223888D01*
X14924943Y-11223888D02*
X14915420Y-11185793D01*
X14915420Y-11185793D02*
X14915420Y-11138174D01*
X14915420Y-11138174D02*
X14924943Y-11100079D01*
X14924943Y-11100079D02*
X14934467Y-11081031D01*
X14934467Y-11081031D02*
X14943991Y-11071508D01*
X14943991Y-11071508D02*
X14963039Y-11061984D01*
X15115420Y-11261984D02*
X15115420Y-11128650D01*
X15115420Y-11147698D02*
X15124943Y-11138174D01*
X15124943Y-11138174D02*
X15143991Y-11128650D01*
X15143991Y-11128650D02*
X15172563Y-11128650D01*
X15172563Y-11128650D02*
X15191610Y-11138174D01*
X15191610Y-11138174D02*
X15201134Y-11157222D01*
X15201134Y-11157222D02*
X15201134Y-11261984D01*
X15201134Y-11157222D02*
X15210658Y-11138174D01*
X15210658Y-11138174D02*
X15229705Y-11128650D01*
X15229705Y-11128650D02*
X15258277Y-11128650D01*
X15258277Y-11128650D02*
X15277324Y-11138174D01*
X15277324Y-11138174D02*
X15286848Y-11157222D01*
X15286848Y-11157222D02*
X15286848Y-11261984D01*
X15382086Y-11261984D02*
X15382086Y-11128650D01*
X15382086Y-11147698D02*
X15391610Y-11138174D01*
X15391610Y-11138174D02*
X15410658Y-11128650D01*
X15410658Y-11128650D02*
X15439229Y-11128650D01*
X15439229Y-11128650D02*
X15458277Y-11138174D01*
X15458277Y-11138174D02*
X15467801Y-11157222D01*
X15467801Y-11157222D02*
X15467801Y-11261984D01*
X15467801Y-11157222D02*
X15477324Y-11138174D01*
X15477324Y-11138174D02*
X15496372Y-11128650D01*
X15496372Y-11128650D02*
X15524943Y-11128650D01*
X15524943Y-11128650D02*
X15543991Y-11138174D01*
X15543991Y-11138174D02*
X15553515Y-11157222D01*
X15553515Y-11157222D02*
X15553515Y-11261984D01*
X15943991Y-11052460D02*
X15772563Y-11309603D01*
X16201134Y-11061984D02*
X16220182Y-11061984D01*
X16220182Y-11061984D02*
X16239229Y-11071508D01*
X16239229Y-11071508D02*
X16248753Y-11081031D01*
X16248753Y-11081031D02*
X16258277Y-11100079D01*
X16258277Y-11100079D02*
X16267801Y-11138174D01*
X16267801Y-11138174D02*
X16267801Y-11185793D01*
X16267801Y-11185793D02*
X16258277Y-11223888D01*
X16258277Y-11223888D02*
X16248753Y-11242936D01*
X16248753Y-11242936D02*
X16239229Y-11252460D01*
X16239229Y-11252460D02*
X16220182Y-11261984D01*
X16220182Y-11261984D02*
X16201134Y-11261984D01*
X16201134Y-11261984D02*
X16182086Y-11252460D01*
X16182086Y-11252460D02*
X16172563Y-11242936D01*
X16172563Y-11242936D02*
X16163039Y-11223888D01*
X16163039Y-11223888D02*
X16153515Y-11185793D01*
X16153515Y-11185793D02*
X16153515Y-11138174D01*
X16153515Y-11138174D02*
X16163039Y-11100079D01*
X16163039Y-11100079D02*
X16172563Y-11081031D01*
X16172563Y-11081031D02*
X16182086Y-11071508D01*
X16182086Y-11071508D02*
X16201134Y-11061984D01*
X16353515Y-11242936D02*
X16363039Y-11252460D01*
X16363039Y-11252460D02*
X16353515Y-11261984D01*
X16353515Y-11261984D02*
X16343991Y-11252460D01*
X16343991Y-11252460D02*
X16353515Y-11242936D01*
X16353515Y-11242936D02*
X16353515Y-11261984D01*
X16486848Y-11061984D02*
X16505896Y-11061984D01*
X16505896Y-11061984D02*
X16524944Y-11071508D01*
X16524944Y-11071508D02*
X16534467Y-11081031D01*
X16534467Y-11081031D02*
X16543991Y-11100079D01*
X16543991Y-11100079D02*
X16553515Y-11138174D01*
X16553515Y-11138174D02*
X16553515Y-11185793D01*
X16553515Y-11185793D02*
X16543991Y-11223888D01*
X16543991Y-11223888D02*
X16534467Y-11242936D01*
X16534467Y-11242936D02*
X16524944Y-11252460D01*
X16524944Y-11252460D02*
X16505896Y-11261984D01*
X16505896Y-11261984D02*
X16486848Y-11261984D01*
X16486848Y-11261984D02*
X16467801Y-11252460D01*
X16467801Y-11252460D02*
X16458277Y-11242936D01*
X16458277Y-11242936D02*
X16448753Y-11223888D01*
X16448753Y-11223888D02*
X16439229Y-11185793D01*
X16439229Y-11185793D02*
X16439229Y-11138174D01*
X16439229Y-11138174D02*
X16448753Y-11100079D01*
X16448753Y-11100079D02*
X16458277Y-11081031D01*
X16458277Y-11081031D02*
X16467801Y-11071508D01*
X16467801Y-11071508D02*
X16486848Y-11061984D01*
X16620182Y-11061984D02*
X16743991Y-11061984D01*
X16743991Y-11061984D02*
X16677325Y-11138174D01*
X16677325Y-11138174D02*
X16705896Y-11138174D01*
X16705896Y-11138174D02*
X16724944Y-11147698D01*
X16724944Y-11147698D02*
X16734467Y-11157222D01*
X16734467Y-11157222D02*
X16743991Y-11176270D01*
X16743991Y-11176270D02*
X16743991Y-11223888D01*
X16743991Y-11223888D02*
X16734467Y-11242936D01*
X16734467Y-11242936D02*
X16724944Y-11252460D01*
X16724944Y-11252460D02*
X16705896Y-11261984D01*
X16705896Y-11261984D02*
X16648753Y-11261984D01*
X16648753Y-11261984D02*
X16629706Y-11252460D01*
X16629706Y-11252460D02*
X16620182Y-11242936D01*
X16839229Y-11261984D02*
X16877325Y-11261984D01*
X16877325Y-11261984D02*
X16896372Y-11252460D01*
X16896372Y-11252460D02*
X16905896Y-11242936D01*
X16905896Y-11242936D02*
X16924944Y-11214365D01*
X16924944Y-11214365D02*
X16934468Y-11176270D01*
X16934468Y-11176270D02*
X16934468Y-11100079D01*
X16934468Y-11100079D02*
X16924944Y-11081031D01*
X16924944Y-11081031D02*
X16915420Y-11071508D01*
X16915420Y-11071508D02*
X16896372Y-11061984D01*
X16896372Y-11061984D02*
X16858277Y-11061984D01*
X16858277Y-11061984D02*
X16839229Y-11071508D01*
X16839229Y-11071508D02*
X16829706Y-11081031D01*
X16829706Y-11081031D02*
X16820182Y-11100079D01*
X16820182Y-11100079D02*
X16820182Y-11147698D01*
X16820182Y-11147698D02*
X16829706Y-11166746D01*
X16829706Y-11166746D02*
X16839229Y-11176270D01*
X16839229Y-11176270D02*
X16858277Y-11185793D01*
X16858277Y-11185793D02*
X16896372Y-11185793D01*
X16896372Y-11185793D02*
X16915420Y-11176270D01*
X16915420Y-11176270D02*
X16924944Y-11166746D01*
X16924944Y-11166746D02*
X16934468Y-11147698D01*
X17105896Y-11128650D02*
X17105896Y-11261984D01*
X17058277Y-11052460D02*
X17010658Y-11195317D01*
X17010658Y-11195317D02*
X17134468Y-11195317D01*
X17201134Y-11061984D02*
X17201134Y-11100079D01*
X17277325Y-11061984D02*
X17277325Y-11100079D01*
X17572563Y-11338174D02*
X17563039Y-11328650D01*
X17563039Y-11328650D02*
X17543991Y-11300079D01*
X17543991Y-11300079D02*
X17534468Y-11281031D01*
X17534468Y-11281031D02*
X17524944Y-11252460D01*
X17524944Y-11252460D02*
X17515420Y-11204841D01*
X17515420Y-11204841D02*
X17515420Y-11166746D01*
X17515420Y-11166746D02*
X17524944Y-11119127D01*
X17524944Y-11119127D02*
X17534468Y-11090555D01*
X17534468Y-11090555D02*
X17543991Y-11071508D01*
X17543991Y-11071508D02*
X17563039Y-11042936D01*
X17563039Y-11042936D02*
X17572563Y-11033412D01*
X17743991Y-11061984D02*
X17648753Y-11061984D01*
X17648753Y-11061984D02*
X17639230Y-11157222D01*
X17639230Y-11157222D02*
X17648753Y-11147698D01*
X17648753Y-11147698D02*
X17667801Y-11138174D01*
X17667801Y-11138174D02*
X17715420Y-11138174D01*
X17715420Y-11138174D02*
X17734468Y-11147698D01*
X17734468Y-11147698D02*
X17743991Y-11157222D01*
X17743991Y-11157222D02*
X17753515Y-11176270D01*
X17753515Y-11176270D02*
X17753515Y-11223888D01*
X17753515Y-11223888D02*
X17743991Y-11242936D01*
X17743991Y-11242936D02*
X17734468Y-11252460D01*
X17734468Y-11252460D02*
X17715420Y-11261984D01*
X17715420Y-11261984D02*
X17667801Y-11261984D01*
X17667801Y-11261984D02*
X17648753Y-11252460D01*
X17648753Y-11252460D02*
X17639230Y-11242936D01*
X17991611Y-11261984D02*
X17991611Y-11061984D01*
X18077325Y-11261984D02*
X18077325Y-11157222D01*
X18077325Y-11157222D02*
X18067801Y-11138174D01*
X18067801Y-11138174D02*
X18048753Y-11128650D01*
X18048753Y-11128650D02*
X18020182Y-11128650D01*
X18020182Y-11128650D02*
X18001134Y-11138174D01*
X18001134Y-11138174D02*
X17991611Y-11147698D01*
X18201134Y-11261984D02*
X18182087Y-11252460D01*
X18182087Y-11252460D02*
X18172563Y-11242936D01*
X18172563Y-11242936D02*
X18163039Y-11223888D01*
X18163039Y-11223888D02*
X18163039Y-11166746D01*
X18163039Y-11166746D02*
X18172563Y-11147698D01*
X18172563Y-11147698D02*
X18182087Y-11138174D01*
X18182087Y-11138174D02*
X18201134Y-11128650D01*
X18201134Y-11128650D02*
X18229706Y-11128650D01*
X18229706Y-11128650D02*
X18248753Y-11138174D01*
X18248753Y-11138174D02*
X18258277Y-11147698D01*
X18258277Y-11147698D02*
X18267801Y-11166746D01*
X18267801Y-11166746D02*
X18267801Y-11223888D01*
X18267801Y-11223888D02*
X18258277Y-11242936D01*
X18258277Y-11242936D02*
X18248753Y-11252460D01*
X18248753Y-11252460D02*
X18229706Y-11261984D01*
X18229706Y-11261984D02*
X18201134Y-11261984D01*
X18382087Y-11261984D02*
X18363039Y-11252460D01*
X18363039Y-11252460D02*
X18353515Y-11233412D01*
X18353515Y-11233412D02*
X18353515Y-11061984D01*
X18534468Y-11252460D02*
X18515420Y-11261984D01*
X18515420Y-11261984D02*
X18477325Y-11261984D01*
X18477325Y-11261984D02*
X18458277Y-11252460D01*
X18458277Y-11252460D02*
X18448753Y-11233412D01*
X18448753Y-11233412D02*
X18448753Y-11157222D01*
X18448753Y-11157222D02*
X18458277Y-11138174D01*
X18458277Y-11138174D02*
X18477325Y-11128650D01*
X18477325Y-11128650D02*
X18515420Y-11128650D01*
X18515420Y-11128650D02*
X18534468Y-11138174D01*
X18534468Y-11138174D02*
X18543992Y-11157222D01*
X18543992Y-11157222D02*
X18543992Y-11176270D01*
X18543992Y-11176270D02*
X18448753Y-11195317D01*
X18620182Y-11252460D02*
X18639230Y-11261984D01*
X18639230Y-11261984D02*
X18677325Y-11261984D01*
X18677325Y-11261984D02*
X18696373Y-11252460D01*
X18696373Y-11252460D02*
X18705896Y-11233412D01*
X18705896Y-11233412D02*
X18705896Y-11223888D01*
X18705896Y-11223888D02*
X18696373Y-11204841D01*
X18696373Y-11204841D02*
X18677325Y-11195317D01*
X18677325Y-11195317D02*
X18648753Y-11195317D01*
X18648753Y-11195317D02*
X18629706Y-11185793D01*
X18629706Y-11185793D02*
X18620182Y-11166746D01*
X18620182Y-11166746D02*
X18620182Y-11157222D01*
X18620182Y-11157222D02*
X18629706Y-11138174D01*
X18629706Y-11138174D02*
X18648753Y-11128650D01*
X18648753Y-11128650D02*
X18677325Y-11128650D01*
X18677325Y-11128650D02*
X18696373Y-11138174D01*
X18772563Y-11338174D02*
X18782087Y-11328650D01*
X18782087Y-11328650D02*
X18801134Y-11300079D01*
X18801134Y-11300079D02*
X18810658Y-11281031D01*
X18810658Y-11281031D02*
X18820182Y-11252460D01*
X18820182Y-11252460D02*
X18829706Y-11204841D01*
X18829706Y-11204841D02*
X18829706Y-11166746D01*
X18829706Y-11166746D02*
X18820182Y-11119127D01*
X18820182Y-11119127D02*
X18810658Y-11090555D01*
X18810658Y-11090555D02*
X18801134Y-11071508D01*
X18801134Y-11071508D02*
X18782087Y-11042936D01*
X18782087Y-11042936D02*
X18772563Y-11033412D01*
D13*
X13981391Y-11473391D02*
X13981391Y-11395609D01*
X13903609Y-11395609D01*
X13903609Y-11473391D01*
X13981391Y-11473391D01*
D11*
X14363039Y-11525984D02*
X14248753Y-11525984D01*
X14305896Y-11525984D02*
X14305896Y-11325984D01*
X14305896Y-11325984D02*
X14286848Y-11354555D01*
X14286848Y-11354555D02*
X14267801Y-11373603D01*
X14267801Y-11373603D02*
X14248753Y-11383127D01*
X14448753Y-11506936D02*
X14458277Y-11516460D01*
X14458277Y-11516460D02*
X14448753Y-11525984D01*
X14448753Y-11525984D02*
X14439229Y-11516460D01*
X14439229Y-11516460D02*
X14448753Y-11506936D01*
X14448753Y-11506936D02*
X14448753Y-11525984D01*
X14648753Y-11525984D02*
X14534467Y-11525984D01*
X14591610Y-11525984D02*
X14591610Y-11325984D01*
X14591610Y-11325984D02*
X14572562Y-11354555D01*
X14572562Y-11354555D02*
X14553515Y-11373603D01*
X14553515Y-11373603D02*
X14534467Y-11383127D01*
X14772562Y-11325984D02*
X14791610Y-11325984D01*
X14791610Y-11325984D02*
X14810658Y-11335508D01*
X14810658Y-11335508D02*
X14820182Y-11345031D01*
X14820182Y-11345031D02*
X14829705Y-11364079D01*
X14829705Y-11364079D02*
X14839229Y-11402174D01*
X14839229Y-11402174D02*
X14839229Y-11449793D01*
X14839229Y-11449793D02*
X14829705Y-11487888D01*
X14829705Y-11487888D02*
X14820182Y-11506936D01*
X14820182Y-11506936D02*
X14810658Y-11516460D01*
X14810658Y-11516460D02*
X14791610Y-11525984D01*
X14791610Y-11525984D02*
X14772562Y-11525984D01*
X14772562Y-11525984D02*
X14753515Y-11516460D01*
X14753515Y-11516460D02*
X14743991Y-11506936D01*
X14743991Y-11506936D02*
X14734467Y-11487888D01*
X14734467Y-11487888D02*
X14724943Y-11449793D01*
X14724943Y-11449793D02*
X14724943Y-11402174D01*
X14724943Y-11402174D02*
X14734467Y-11364079D01*
X14734467Y-11364079D02*
X14743991Y-11345031D01*
X14743991Y-11345031D02*
X14753515Y-11335508D01*
X14753515Y-11335508D02*
X14772562Y-11325984D01*
X14963039Y-11325984D02*
X14982086Y-11325984D01*
X14982086Y-11325984D02*
X15001134Y-11335508D01*
X15001134Y-11335508D02*
X15010658Y-11345031D01*
X15010658Y-11345031D02*
X15020182Y-11364079D01*
X15020182Y-11364079D02*
X15029705Y-11402174D01*
X15029705Y-11402174D02*
X15029705Y-11449793D01*
X15029705Y-11449793D02*
X15020182Y-11487888D01*
X15020182Y-11487888D02*
X15010658Y-11506936D01*
X15010658Y-11506936D02*
X15001134Y-11516460D01*
X15001134Y-11516460D02*
X14982086Y-11525984D01*
X14982086Y-11525984D02*
X14963039Y-11525984D01*
X14963039Y-11525984D02*
X14943991Y-11516460D01*
X14943991Y-11516460D02*
X14934467Y-11506936D01*
X14934467Y-11506936D02*
X14924943Y-11487888D01*
X14924943Y-11487888D02*
X14915420Y-11449793D01*
X14915420Y-11449793D02*
X14915420Y-11402174D01*
X14915420Y-11402174D02*
X14924943Y-11364079D01*
X14924943Y-11364079D02*
X14934467Y-11345031D01*
X14934467Y-11345031D02*
X14943991Y-11335508D01*
X14943991Y-11335508D02*
X14963039Y-11325984D01*
X15115420Y-11525984D02*
X15115420Y-11392650D01*
X15115420Y-11411698D02*
X15124943Y-11402174D01*
X15124943Y-11402174D02*
X15143991Y-11392650D01*
X15143991Y-11392650D02*
X15172563Y-11392650D01*
X15172563Y-11392650D02*
X15191610Y-11402174D01*
X15191610Y-11402174D02*
X15201134Y-11421222D01*
X15201134Y-11421222D02*
X15201134Y-11525984D01*
X15201134Y-11421222D02*
X15210658Y-11402174D01*
X15210658Y-11402174D02*
X15229705Y-11392650D01*
X15229705Y-11392650D02*
X15258277Y-11392650D01*
X15258277Y-11392650D02*
X15277324Y-11402174D01*
X15277324Y-11402174D02*
X15286848Y-11421222D01*
X15286848Y-11421222D02*
X15286848Y-11525984D01*
X15382086Y-11525984D02*
X15382086Y-11392650D01*
X15382086Y-11411698D02*
X15391610Y-11402174D01*
X15391610Y-11402174D02*
X15410658Y-11392650D01*
X15410658Y-11392650D02*
X15439229Y-11392650D01*
X15439229Y-11392650D02*
X15458277Y-11402174D01*
X15458277Y-11402174D02*
X15467801Y-11421222D01*
X15467801Y-11421222D02*
X15467801Y-11525984D01*
X15467801Y-11421222D02*
X15477324Y-11402174D01*
X15477324Y-11402174D02*
X15496372Y-11392650D01*
X15496372Y-11392650D02*
X15524943Y-11392650D01*
X15524943Y-11392650D02*
X15543991Y-11402174D01*
X15543991Y-11402174D02*
X15553515Y-11421222D01*
X15553515Y-11421222D02*
X15553515Y-11525984D01*
X15943991Y-11316460D02*
X15772563Y-11573603D01*
X16201134Y-11325984D02*
X16220182Y-11325984D01*
X16220182Y-11325984D02*
X16239229Y-11335508D01*
X16239229Y-11335508D02*
X16248753Y-11345031D01*
X16248753Y-11345031D02*
X16258277Y-11364079D01*
X16258277Y-11364079D02*
X16267801Y-11402174D01*
X16267801Y-11402174D02*
X16267801Y-11449793D01*
X16267801Y-11449793D02*
X16258277Y-11487888D01*
X16258277Y-11487888D02*
X16248753Y-11506936D01*
X16248753Y-11506936D02*
X16239229Y-11516460D01*
X16239229Y-11516460D02*
X16220182Y-11525984D01*
X16220182Y-11525984D02*
X16201134Y-11525984D01*
X16201134Y-11525984D02*
X16182086Y-11516460D01*
X16182086Y-11516460D02*
X16172563Y-11506936D01*
X16172563Y-11506936D02*
X16163039Y-11487888D01*
X16163039Y-11487888D02*
X16153515Y-11449793D01*
X16153515Y-11449793D02*
X16153515Y-11402174D01*
X16153515Y-11402174D02*
X16163039Y-11364079D01*
X16163039Y-11364079D02*
X16172563Y-11345031D01*
X16172563Y-11345031D02*
X16182086Y-11335508D01*
X16182086Y-11335508D02*
X16201134Y-11325984D01*
X16353515Y-11506936D02*
X16363039Y-11516460D01*
X16363039Y-11516460D02*
X16353515Y-11525984D01*
X16353515Y-11525984D02*
X16343991Y-11516460D01*
X16343991Y-11516460D02*
X16353515Y-11506936D01*
X16353515Y-11506936D02*
X16353515Y-11525984D01*
X16486848Y-11325984D02*
X16505896Y-11325984D01*
X16505896Y-11325984D02*
X16524944Y-11335508D01*
X16524944Y-11335508D02*
X16534467Y-11345031D01*
X16534467Y-11345031D02*
X16543991Y-11364079D01*
X16543991Y-11364079D02*
X16553515Y-11402174D01*
X16553515Y-11402174D02*
X16553515Y-11449793D01*
X16553515Y-11449793D02*
X16543991Y-11487888D01*
X16543991Y-11487888D02*
X16534467Y-11506936D01*
X16534467Y-11506936D02*
X16524944Y-11516460D01*
X16524944Y-11516460D02*
X16505896Y-11525984D01*
X16505896Y-11525984D02*
X16486848Y-11525984D01*
X16486848Y-11525984D02*
X16467801Y-11516460D01*
X16467801Y-11516460D02*
X16458277Y-11506936D01*
X16458277Y-11506936D02*
X16448753Y-11487888D01*
X16448753Y-11487888D02*
X16439229Y-11449793D01*
X16439229Y-11449793D02*
X16439229Y-11402174D01*
X16439229Y-11402174D02*
X16448753Y-11364079D01*
X16448753Y-11364079D02*
X16458277Y-11345031D01*
X16458277Y-11345031D02*
X16467801Y-11335508D01*
X16467801Y-11335508D02*
X16486848Y-11325984D01*
X16724944Y-11392650D02*
X16724944Y-11525984D01*
X16677325Y-11316460D02*
X16629706Y-11459317D01*
X16629706Y-11459317D02*
X16753515Y-11459317D01*
X16810658Y-11325984D02*
X16934468Y-11325984D01*
X16934468Y-11325984D02*
X16867801Y-11402174D01*
X16867801Y-11402174D02*
X16896372Y-11402174D01*
X16896372Y-11402174D02*
X16915420Y-11411698D01*
X16915420Y-11411698D02*
X16924944Y-11421222D01*
X16924944Y-11421222D02*
X16934468Y-11440269D01*
X16934468Y-11440269D02*
X16934468Y-11487888D01*
X16934468Y-11487888D02*
X16924944Y-11506936D01*
X16924944Y-11506936D02*
X16915420Y-11516460D01*
X16915420Y-11516460D02*
X16896372Y-11525984D01*
X16896372Y-11525984D02*
X16839229Y-11525984D01*
X16839229Y-11525984D02*
X16820182Y-11516460D01*
X16820182Y-11516460D02*
X16810658Y-11506936D01*
X17001134Y-11325984D02*
X17124944Y-11325984D01*
X17124944Y-11325984D02*
X17058277Y-11402174D01*
X17058277Y-11402174D02*
X17086849Y-11402174D01*
X17086849Y-11402174D02*
X17105896Y-11411698D01*
X17105896Y-11411698D02*
X17115420Y-11421222D01*
X17115420Y-11421222D02*
X17124944Y-11440269D01*
X17124944Y-11440269D02*
X17124944Y-11487888D01*
X17124944Y-11487888D02*
X17115420Y-11506936D01*
X17115420Y-11506936D02*
X17105896Y-11516460D01*
X17105896Y-11516460D02*
X17086849Y-11525984D01*
X17086849Y-11525984D02*
X17029706Y-11525984D01*
X17029706Y-11525984D02*
X17010658Y-11516460D01*
X17010658Y-11516460D02*
X17001134Y-11506936D01*
X17201134Y-11325984D02*
X17201134Y-11364079D01*
X17277325Y-11325984D02*
X17277325Y-11364079D01*
X17572563Y-11602174D02*
X17563039Y-11592650D01*
X17563039Y-11592650D02*
X17543991Y-11564079D01*
X17543991Y-11564079D02*
X17534468Y-11545031D01*
X17534468Y-11545031D02*
X17524944Y-11516460D01*
X17524944Y-11516460D02*
X17515420Y-11468841D01*
X17515420Y-11468841D02*
X17515420Y-11430746D01*
X17515420Y-11430746D02*
X17524944Y-11383127D01*
X17524944Y-11383127D02*
X17534468Y-11354555D01*
X17534468Y-11354555D02*
X17543991Y-11335508D01*
X17543991Y-11335508D02*
X17563039Y-11306936D01*
X17563039Y-11306936D02*
X17572563Y-11297412D01*
X17639230Y-11345031D02*
X17648753Y-11335508D01*
X17648753Y-11335508D02*
X17667801Y-11325984D01*
X17667801Y-11325984D02*
X17715420Y-11325984D01*
X17715420Y-11325984D02*
X17734468Y-11335508D01*
X17734468Y-11335508D02*
X17743991Y-11345031D01*
X17743991Y-11345031D02*
X17753515Y-11364079D01*
X17753515Y-11364079D02*
X17753515Y-11383127D01*
X17753515Y-11383127D02*
X17743991Y-11411698D01*
X17743991Y-11411698D02*
X17629706Y-11525984D01*
X17629706Y-11525984D02*
X17753515Y-11525984D01*
X17991611Y-11525984D02*
X17991611Y-11325984D01*
X18077325Y-11525984D02*
X18077325Y-11421222D01*
X18077325Y-11421222D02*
X18067801Y-11402174D01*
X18067801Y-11402174D02*
X18048753Y-11392650D01*
X18048753Y-11392650D02*
X18020182Y-11392650D01*
X18020182Y-11392650D02*
X18001134Y-11402174D01*
X18001134Y-11402174D02*
X17991611Y-11411698D01*
X18201134Y-11525984D02*
X18182087Y-11516460D01*
X18182087Y-11516460D02*
X18172563Y-11506936D01*
X18172563Y-11506936D02*
X18163039Y-11487888D01*
X18163039Y-11487888D02*
X18163039Y-11430746D01*
X18163039Y-11430746D02*
X18172563Y-11411698D01*
X18172563Y-11411698D02*
X18182087Y-11402174D01*
X18182087Y-11402174D02*
X18201134Y-11392650D01*
X18201134Y-11392650D02*
X18229706Y-11392650D01*
X18229706Y-11392650D02*
X18248753Y-11402174D01*
X18248753Y-11402174D02*
X18258277Y-11411698D01*
X18258277Y-11411698D02*
X18267801Y-11430746D01*
X18267801Y-11430746D02*
X18267801Y-11487888D01*
X18267801Y-11487888D02*
X18258277Y-11506936D01*
X18258277Y-11506936D02*
X18248753Y-11516460D01*
X18248753Y-11516460D02*
X18229706Y-11525984D01*
X18229706Y-11525984D02*
X18201134Y-11525984D01*
X18382087Y-11525984D02*
X18363039Y-11516460D01*
X18363039Y-11516460D02*
X18353515Y-11497412D01*
X18353515Y-11497412D02*
X18353515Y-11325984D01*
X18534468Y-11516460D02*
X18515420Y-11525984D01*
X18515420Y-11525984D02*
X18477325Y-11525984D01*
X18477325Y-11525984D02*
X18458277Y-11516460D01*
X18458277Y-11516460D02*
X18448753Y-11497412D01*
X18448753Y-11497412D02*
X18448753Y-11421222D01*
X18448753Y-11421222D02*
X18458277Y-11402174D01*
X18458277Y-11402174D02*
X18477325Y-11392650D01*
X18477325Y-11392650D02*
X18515420Y-11392650D01*
X18515420Y-11392650D02*
X18534468Y-11402174D01*
X18534468Y-11402174D02*
X18543992Y-11421222D01*
X18543992Y-11421222D02*
X18543992Y-11440269D01*
X18543992Y-11440269D02*
X18448753Y-11459317D01*
X18620182Y-11516460D02*
X18639230Y-11525984D01*
X18639230Y-11525984D02*
X18677325Y-11525984D01*
X18677325Y-11525984D02*
X18696373Y-11516460D01*
X18696373Y-11516460D02*
X18705896Y-11497412D01*
X18705896Y-11497412D02*
X18705896Y-11487888D01*
X18705896Y-11487888D02*
X18696373Y-11468841D01*
X18696373Y-11468841D02*
X18677325Y-11459317D01*
X18677325Y-11459317D02*
X18648753Y-11459317D01*
X18648753Y-11459317D02*
X18629706Y-11449793D01*
X18629706Y-11449793D02*
X18620182Y-11430746D01*
X18620182Y-11430746D02*
X18620182Y-11421222D01*
X18620182Y-11421222D02*
X18629706Y-11402174D01*
X18629706Y-11402174D02*
X18648753Y-11392650D01*
X18648753Y-11392650D02*
X18677325Y-11392650D01*
X18677325Y-11392650D02*
X18696373Y-11402174D01*
X18772563Y-11602174D02*
X18782087Y-11592650D01*
X18782087Y-11592650D02*
X18801134Y-11564079D01*
X18801134Y-11564079D02*
X18810658Y-11545031D01*
X18810658Y-11545031D02*
X18820182Y-11516460D01*
X18820182Y-11516460D02*
X18829706Y-11468841D01*
X18829706Y-11468841D02*
X18829706Y-11430746D01*
X18829706Y-11430746D02*
X18820182Y-11383127D01*
X18820182Y-11383127D02*
X18810658Y-11354555D01*
X18810658Y-11354555D02*
X18801134Y-11335508D01*
X18801134Y-11335508D02*
X18782087Y-11306936D01*
X18782087Y-11306936D02*
X18772563Y-11297412D01*
M02*
