G04 #@! TF.GenerationSoftware,KiCad,Pcbnew,8.0.4*
G04 #@! TF.CreationDate,2024-08-04T13:10:15-04:00*
G04 #@! TF.ProjectId,WormshakerPCB,576f726d-7368-4616-9b65-725043422e6b,rev?*
G04 #@! TF.SameCoordinates,Original*
G04 #@! TF.FileFunction,Legend,Top*
G04 #@! TF.FilePolarity,Positive*
%FSLAX46Y46*%
G04 Gerber Fmt 4.6, Leading zero omitted, Abs format (unit mm)*
G04 Created by KiCad (PCBNEW 8.0.4) date 2024-08-04 13:10:15*
%MOMM*%
%LPD*%
G01*
G04 APERTURE LIST*
%ADD10C,0.100000*%
%ADD11C,0.150000*%
%ADD12C,0.120000*%
%ADD13C,1.600000*%
%ADD14R,2.200000X2.200000*%
%ADD15O,2.200000X2.200000*%
%ADD16O,1.600000X1.600000*%
%ADD17O,1.700000X1.700000*%
%ADD18R,1.700000X1.700000*%
%ADD19R,1.050000X1.500000*%
%ADD20O,1.050000X1.500000*%
%ADD21C,2.200000*%
G04 APERTURE END LIST*
D10*
X155053884Y-93491466D02*
X155815789Y-93491466D01*
X155053884Y-90991466D02*
X155815789Y-90991466D01*
X155434836Y-91372419D02*
X155434836Y-90610514D01*
X144827693Y-90420038D02*
X144732455Y-90372419D01*
X144732455Y-90372419D02*
X144589598Y-90372419D01*
X144589598Y-90372419D02*
X144446741Y-90420038D01*
X144446741Y-90420038D02*
X144351503Y-90515276D01*
X144351503Y-90515276D02*
X144303884Y-90610514D01*
X144303884Y-90610514D02*
X144256265Y-90800990D01*
X144256265Y-90800990D02*
X144256265Y-90943847D01*
X144256265Y-90943847D02*
X144303884Y-91134323D01*
X144303884Y-91134323D02*
X144351503Y-91229561D01*
X144351503Y-91229561D02*
X144446741Y-91324800D01*
X144446741Y-91324800D02*
X144589598Y-91372419D01*
X144589598Y-91372419D02*
X144684836Y-91372419D01*
X144684836Y-91372419D02*
X144827693Y-91324800D01*
X144827693Y-91324800D02*
X144875312Y-91277180D01*
X144875312Y-91277180D02*
X144875312Y-90943847D01*
X144875312Y-90943847D02*
X144684836Y-90943847D01*
X145303884Y-91372419D02*
X145303884Y-90372419D01*
X145303884Y-90372419D02*
X145875312Y-91372419D01*
X145875312Y-91372419D02*
X145875312Y-90372419D01*
X146351503Y-91372419D02*
X146351503Y-90372419D01*
X146351503Y-90372419D02*
X146589598Y-90372419D01*
X146589598Y-90372419D02*
X146732455Y-90420038D01*
X146732455Y-90420038D02*
X146827693Y-90515276D01*
X146827693Y-90515276D02*
X146875312Y-90610514D01*
X146875312Y-90610514D02*
X146922931Y-90800990D01*
X146922931Y-90800990D02*
X146922931Y-90943847D01*
X146922931Y-90943847D02*
X146875312Y-91134323D01*
X146875312Y-91134323D02*
X146827693Y-91229561D01*
X146827693Y-91229561D02*
X146732455Y-91324800D01*
X146732455Y-91324800D02*
X146589598Y-91372419D01*
X146589598Y-91372419D02*
X146351503Y-91372419D01*
X144161027Y-87872419D02*
X144494360Y-88872419D01*
X144494360Y-88872419D02*
X144827693Y-87872419D01*
X145732455Y-88777180D02*
X145684836Y-88824800D01*
X145684836Y-88824800D02*
X145541979Y-88872419D01*
X145541979Y-88872419D02*
X145446741Y-88872419D01*
X145446741Y-88872419D02*
X145303884Y-88824800D01*
X145303884Y-88824800D02*
X145208646Y-88729561D01*
X145208646Y-88729561D02*
X145161027Y-88634323D01*
X145161027Y-88634323D02*
X145113408Y-88443847D01*
X145113408Y-88443847D02*
X145113408Y-88300990D01*
X145113408Y-88300990D02*
X145161027Y-88110514D01*
X145161027Y-88110514D02*
X145208646Y-88015276D01*
X145208646Y-88015276D02*
X145303884Y-87920038D01*
X145303884Y-87920038D02*
X145446741Y-87872419D01*
X145446741Y-87872419D02*
X145541979Y-87872419D01*
X145541979Y-87872419D02*
X145684836Y-87920038D01*
X145684836Y-87920038D02*
X145732455Y-87967657D01*
X146732455Y-88777180D02*
X146684836Y-88824800D01*
X146684836Y-88824800D02*
X146541979Y-88872419D01*
X146541979Y-88872419D02*
X146446741Y-88872419D01*
X146446741Y-88872419D02*
X146303884Y-88824800D01*
X146303884Y-88824800D02*
X146208646Y-88729561D01*
X146208646Y-88729561D02*
X146161027Y-88634323D01*
X146161027Y-88634323D02*
X146113408Y-88443847D01*
X146113408Y-88443847D02*
X146113408Y-88300990D01*
X146113408Y-88300990D02*
X146161027Y-88110514D01*
X146161027Y-88110514D02*
X146208646Y-88015276D01*
X146208646Y-88015276D02*
X146303884Y-87920038D01*
X146303884Y-87920038D02*
X146446741Y-87872419D01*
X146446741Y-87872419D02*
X146541979Y-87872419D01*
X146541979Y-87872419D02*
X146684836Y-87920038D01*
X146684836Y-87920038D02*
X146732455Y-87967657D01*
X144303884Y-86122419D02*
X144303884Y-85122419D01*
X144780074Y-86122419D02*
X144780074Y-85122419D01*
X144780074Y-85122419D02*
X145351502Y-86122419D01*
X145351502Y-86122419D02*
X145351502Y-85122419D01*
D11*
X150783533Y-91508780D02*
X150735914Y-91556400D01*
X150735914Y-91556400D02*
X150593057Y-91604019D01*
X150593057Y-91604019D02*
X150497819Y-91604019D01*
X150497819Y-91604019D02*
X150354962Y-91556400D01*
X150354962Y-91556400D02*
X150259724Y-91461161D01*
X150259724Y-91461161D02*
X150212105Y-91365923D01*
X150212105Y-91365923D02*
X150164486Y-91175447D01*
X150164486Y-91175447D02*
X150164486Y-91032590D01*
X150164486Y-91032590D02*
X150212105Y-90842114D01*
X150212105Y-90842114D02*
X150259724Y-90746876D01*
X150259724Y-90746876D02*
X150354962Y-90651638D01*
X150354962Y-90651638D02*
X150497819Y-90604019D01*
X150497819Y-90604019D02*
X150593057Y-90604019D01*
X150593057Y-90604019D02*
X150735914Y-90651638D01*
X150735914Y-90651638D02*
X150783533Y-90699257D01*
X151735914Y-91604019D02*
X151164486Y-91604019D01*
X151450200Y-91604019D02*
X151450200Y-90604019D01*
X151450200Y-90604019D02*
X151354962Y-90746876D01*
X151354962Y-90746876D02*
X151259724Y-90842114D01*
X151259724Y-90842114D02*
X151164486Y-90889733D01*
X151373905Y-83170419D02*
X151373905Y-82170419D01*
X151373905Y-82170419D02*
X151612000Y-82170419D01*
X151612000Y-82170419D02*
X151754857Y-82218038D01*
X151754857Y-82218038D02*
X151850095Y-82313276D01*
X151850095Y-82313276D02*
X151897714Y-82408514D01*
X151897714Y-82408514D02*
X151945333Y-82598990D01*
X151945333Y-82598990D02*
X151945333Y-82741847D01*
X151945333Y-82741847D02*
X151897714Y-82932323D01*
X151897714Y-82932323D02*
X151850095Y-83027561D01*
X151850095Y-83027561D02*
X151754857Y-83122800D01*
X151754857Y-83122800D02*
X151612000Y-83170419D01*
X151612000Y-83170419D02*
X151373905Y-83170419D01*
X152897714Y-83170419D02*
X152326286Y-83170419D01*
X152612000Y-83170419D02*
X152612000Y-82170419D01*
X152612000Y-82170419D02*
X152516762Y-82313276D01*
X152516762Y-82313276D02*
X152421524Y-82408514D01*
X152421524Y-82408514D02*
X152326286Y-82456133D01*
X152155133Y-87327619D02*
X151821800Y-86851428D01*
X151583705Y-87327619D02*
X151583705Y-86327619D01*
X151583705Y-86327619D02*
X151964657Y-86327619D01*
X151964657Y-86327619D02*
X152059895Y-86375238D01*
X152059895Y-86375238D02*
X152107514Y-86422857D01*
X152107514Y-86422857D02*
X152155133Y-86518095D01*
X152155133Y-86518095D02*
X152155133Y-86660952D01*
X152155133Y-86660952D02*
X152107514Y-86756190D01*
X152107514Y-86756190D02*
X152059895Y-86803809D01*
X152059895Y-86803809D02*
X151964657Y-86851428D01*
X151964657Y-86851428D02*
X151583705Y-86851428D01*
X153107514Y-87327619D02*
X152536086Y-87327619D01*
X152821800Y-87327619D02*
X152821800Y-86327619D01*
X152821800Y-86327619D02*
X152726562Y-86470476D01*
X152726562Y-86470476D02*
X152631324Y-86565714D01*
X152631324Y-86565714D02*
X152536086Y-86613333D01*
X150072961Y-95939457D02*
X149977723Y-95891838D01*
X149977723Y-95891838D02*
X149882485Y-95796600D01*
X149882485Y-95796600D02*
X149739628Y-95653742D01*
X149739628Y-95653742D02*
X149644390Y-95606123D01*
X149644390Y-95606123D02*
X149549152Y-95606123D01*
X149596771Y-95844219D02*
X149501533Y-95796600D01*
X149501533Y-95796600D02*
X149406295Y-95701361D01*
X149406295Y-95701361D02*
X149358676Y-95510885D01*
X149358676Y-95510885D02*
X149358676Y-95177552D01*
X149358676Y-95177552D02*
X149406295Y-94987076D01*
X149406295Y-94987076D02*
X149501533Y-94891838D01*
X149501533Y-94891838D02*
X149596771Y-94844219D01*
X149596771Y-94844219D02*
X149787247Y-94844219D01*
X149787247Y-94844219D02*
X149882485Y-94891838D01*
X149882485Y-94891838D02*
X149977723Y-94987076D01*
X149977723Y-94987076D02*
X150025342Y-95177552D01*
X150025342Y-95177552D02*
X150025342Y-95510885D01*
X150025342Y-95510885D02*
X149977723Y-95701361D01*
X149977723Y-95701361D02*
X149882485Y-95796600D01*
X149882485Y-95796600D02*
X149787247Y-95844219D01*
X149787247Y-95844219D02*
X149596771Y-95844219D01*
X150977723Y-95844219D02*
X150406295Y-95844219D01*
X150692009Y-95844219D02*
X150692009Y-94844219D01*
X150692009Y-94844219D02*
X150596771Y-94987076D01*
X150596771Y-94987076D02*
X150501533Y-95082314D01*
X150501533Y-95082314D02*
X150406295Y-95129933D01*
D12*
X148330000Y-89529000D02*
X148330000Y-90195000D01*
X148330000Y-89529000D02*
X153670000Y-89529000D01*
X148330000Y-92305000D02*
X148330000Y-92971000D01*
X148330000Y-92971000D02*
X153670000Y-92971000D01*
X153670000Y-89529000D02*
X153670000Y-90195000D01*
X153670000Y-92305000D02*
X153670000Y-92971000D01*
X148177600Y-82750000D02*
X149197600Y-82750000D01*
X149197600Y-81280000D02*
X149197600Y-84220000D01*
X149197600Y-84220000D02*
X154637600Y-84220000D01*
X149977600Y-81280000D02*
X149977600Y-84220000D01*
X150097600Y-81280000D02*
X150097600Y-84220000D01*
X150217600Y-81280000D02*
X150217600Y-84220000D01*
X154637600Y-81280000D02*
X149197600Y-81280000D01*
X154637600Y-84220000D02*
X154637600Y-81280000D01*
X155657600Y-82750000D02*
X154637600Y-82750000D01*
X149040000Y-85496200D02*
X155580000Y-85496200D01*
X149040000Y-85826200D02*
X149040000Y-85496200D01*
X149040000Y-87906200D02*
X149040000Y-88236200D01*
X149040000Y-88236200D02*
X155580000Y-88236200D01*
X155580000Y-85496200D02*
X155580000Y-85826200D01*
X155580000Y-88236200D02*
X155580000Y-87906200D01*
X159080000Y-92270000D02*
X159080000Y-94870000D01*
X156420000Y-94870000D02*
X159080000Y-94870000D01*
X156420000Y-92270000D02*
X159080000Y-92270000D01*
X156420000Y-92270000D02*
X156420000Y-94870000D01*
X156420000Y-91000000D02*
X156420000Y-89670000D01*
X156420000Y-89670000D02*
X157750000Y-89670000D01*
X148230000Y-98700000D02*
X152080000Y-98700000D01*
X148230000Y-98700000D02*
G75*
G02*
X152118611Y-98690122I1940000J1700000D01*
G01*
X143580000Y-87020000D02*
X143580000Y-92160000D01*
X140920000Y-92160000D02*
X143580000Y-92160000D01*
X140920000Y-87020000D02*
X143580000Y-87020000D01*
X140920000Y-87020000D02*
X140920000Y-92160000D01*
X140920000Y-85750000D02*
X140920000Y-84420000D01*
X140920000Y-84420000D02*
X142250000Y-84420000D01*
%LPC*%
D13*
X148500000Y-91250000D03*
X153500000Y-91250000D03*
D14*
X146837600Y-82750000D03*
D15*
X156997600Y-82750000D03*
D13*
X148500000Y-86866200D03*
D16*
X156120000Y-86866200D03*
D17*
X157750000Y-93540000D03*
D18*
X157750000Y-91000000D03*
D19*
X148980000Y-97000000D03*
D20*
X150250000Y-97000000D03*
X151520000Y-97000000D03*
D17*
X142250000Y-90830000D03*
X142250000Y-88290000D03*
D18*
X142250000Y-85750000D03*
D21*
X142000000Y-98000000D03*
X158000000Y-98000000D03*
%LPD*%
M02*
